<?xml version="1.0" encoding="iso-8859-1"?>
<!-- Generator: Adobe Illustrator 19.0.0, SVG Export Plug-In . SVG Version: 6.00 Build 0)  -->
<svg version="1.1" id="object_earth" xmlns="http://www.w3.org/2000/svg" xmlns:xlink="http://www.w3.org/1999/xlink" x="0px" y="0px"
	 viewBox="0 0 512 512" style="enable-background:new 0 0 512 512;" xml:space="preserve">
<g>
	<path style="fill:#88CC2A;" d="M124.583,472.598c-3.255,0-6.453-0.952-9.194-2.759C43.136,422.177,0,342.237,0,256
		c0-37.385,7.919-73.449,23.538-107.187c2.734-5.904,8.646-9.682,15.152-9.682h94.876c36.824,0,66.783,29.959,66.783,66.783
		s-29.959,66.783-66.783,66.783H116.87c-9.206,0-16.696,7.49-16.696,16.696c0,9.206,7.49,16.696,16.696,16.696
		c46.03,0,83.478,37.448,83.478,83.478c0,42.44-31.753,78.09-73.86,82.924C125.852,472.563,125.216,472.598,124.583,472.598z"/>
	<path style="fill:#88CC2A;" d="M264.081,511.855c-0.501,0-1.002-0.022-1.501-0.068c-25.96-2.342-45.536-23.785-45.536-49.874
		c0-27.618,22.469-50.087,50.087-50.087h66.783c9.206,0,16.696-7.49,16.696-16.696c0-9.206-7.49-16.696-16.696-16.696
		c-27.618,0-50.087-22.469-50.087-50.087c0-27.618,22.469-50.087,50.087-50.087h66.783c9.206,0,16.696-7.49,16.696-16.696
		c0-9.206-7.49-16.696-16.696-16.696h-83.478c-55.236,0-100.174-44.938-100.174-100.174S261.981,44.522,317.217,44.522h77.657
		c3.483,0,6.879,1.09,9.712,3.115c32.489,23.234,59.48,54.146,78.056,89.399C501.848,173.487,512,214.624,512,256
		c0,66.773-25.655,130.012-72.235,178.069c-46.474,47.945-108.67,75.568-175.13,77.777
		C264.45,511.852,264.265,511.855,264.081,511.855z"/>
</g>
<path style="fill:#7FB335;" d="M439.765,434.069C486.345,386.012,512,322.773,512,256c0-41.376-10.152-82.513-29.359-118.964
	c-18.574-35.251-45.566-66.165-78.055-89.399c-2.834-2.026-6.23-3.115-9.712-3.115h-77.656c-23.036,0-44.277,7.82-61.217,20.94
	V223.93c16.941,13.119,38.182,20.94,61.217,20.94h83.478c9.206,0,16.696,7.49,16.696,16.696c0,9.206-7.49,16.696-16.696,16.696
	h-66.783c-27.618,0-50.087,22.469-50.087,50.087c0,27.618,22.469,50.087,50.087,50.087c9.206,0,16.696,7.49,16.696,16.696
	c0,9.206-7.49,16.696-16.696,16.696H267.13c-3.827,0-7.548,0.445-11.13,1.262v97.664c2.141,0.479,4.334,0.834,6.579,1.036
	c0.499,0.046,1,0.068,1.501,0.068c0.185,0,0.37-0.003,0.554-0.009C331.095,509.636,393.291,482.015,439.765,434.069z"/>
<path style="fill:#45C7E6;" d="M280.771,495.6c0.232-8.805-6.417-16.277-15.189-17.069c-3.701-0.334-7.007-1.843-9.581-4.137V512
	c2.994,0,5.923-0.052,8.702-0.156C273.505,511.516,280.538,504.406,280.771,495.6z"/>
<path style="fill:#61DAF2;" d="M256,512c-50.177,0-98.8-14.579-140.611-42.161c-5.861-3.867-8.676-10.986-7.046-17.814
	c1.631-6.829,7.359-11.907,14.335-12.708c25.242-2.898,44.278-24.288,44.278-49.752c0-27.618-22.469-50.087-50.087-50.087
	s-50.087-22.469-50.087-50.087c0-27.618,22.469-50.087,50.087-50.087h16.696c18.412,0,33.391-14.979,33.391-33.391
	s-14.979-33.391-33.391-33.391H38.689c-5.697,0-11-2.904-14.068-7.704c-3.069-4.801-3.477-10.833-1.085-16.003
	c20.251-43.76,52.356-80.867,92.846-107.306C157.965,14.354,206.245,0,256,0c53.611,0,104.99,16.472,148.583,47.635
	c5.904,4.221,8.405,11.77,6.189,18.68c-2.215,6.911-8.642,11.598-15.898,11.598h-77.657c-36.824,0-66.783,29.959-66.783,66.783
	s29.959,66.783,66.783,66.783h83.478c27.618,0,50.087,22.469,50.087,50.087c0,27.618-22.469,50.087-50.087,50.087h-66.783
	c-9.206,0-16.696,7.49-16.696,16.696c0,9.206,7.49,16.696,16.696,16.696c27.618,0,50.087,22.469,50.087,50.087
	c0,27.618-22.469,50.087-50.087,50.087H267.13c-9.206,0-16.696,7.49-16.696,16.696c0,8.695,6.512,15.84,15.146,16.619
	c8.773,0.791,15.42,8.263,15.189,17.069c-0.233,8.805-7.266,15.915-16.069,16.244C261.922,511.948,258.994,512,256,512z"/>
<g>
	<path style="fill:#45C7E6;" d="M333.913,311.652h66.783c27.618,0,50.087-22.469,50.087-50.087
		c0-27.618-22.469-50.087-50.087-50.087h-83.478c-27.353,0-50.905-16.536-61.217-40.131v278.156
		c2.957-2.656,6.852-4.286,11.13-4.286h66.783c27.618,0,50.087-22.469,50.087-50.087c0-27.618-22.469-50.087-50.087-50.087
		c-9.206,0-16.696-7.49-16.696-16.696C317.217,319.142,324.707,311.652,333.913,311.652z"/>
	<path style="fill:#45C7E6;" d="M317.217,77.913h77.657c7.257,0,13.683-4.687,15.898-11.597c2.216-6.91-0.285-14.461-6.189-18.68
		C360.99,16.472,309.611,0,256,0v118.044C266.312,94.45,289.864,77.913,317.217,77.913z"/>
</g>
</svg>
