<svg id="svg2891" xmlns="http://www.w3.org/2000/svg" viewBox="0 0 595.28 576"><defs><style>.cls-1{fill:gray;}.cls-2{fill:#ccc;}.cls-3{fill:#999;}.cls-4{fill:#fff;}</style></defs><title>Artboard 1</title><g id="g5053"><circle id="circle2922" class="cls-1" cx="500.2" cy="281.63" r="46.91"/><path id="path2893" class="cls-2" d="M500.2,238.09a43.55,43.55,0,0,0-43.55,43.55h0a43.55,43.55,0,0,0,43.55,43.54h0a43.54,43.54,0,0,0,43.54-43.54h0a43.54,43.54,0,0,0-43.54-43.55ZM488.56,251.7c2.08,0,3.61.74,4.26,2,1.38,2.62-1.52,6.85-6.46,9.45h0c-4.94,2.59-10.07,2.58-11.44,0h0c-1.38-2.62,1.52-6.84,6.46-9.44h0a15.67,15.67,0,0,1,7.18-1.94Zm27.07,3.53c2,0,3.53,1.13,3.54,2.52a1.9,1.9,0,0,1-.12.62c3,.39,5.16,1.8,5.16,3.42,0,1.95-3.05,3.54-6.81,3.54s-6.82-1.59-6.82-3.54c0-1,.79-1.91,2.17-2.58a2.08,2.08,0,0,1-.66-1.46c0-1.39,1.59-2.52,3.54-2.52Zm-20.12,22.44c2.33,0,4.21,1,4.21,2.25h0c0,1.24-1.88,2.24-4.21,2.24s-4.2-1-4.2-2.24,1.88-2.25,4.2-2.25Zm21.25,10.24a13.16,13.16,0,0,1,5.8,1.53c4.14,2.1,6.6,5.58,5.49,7.78s-5.37,2.27-9.52.17-6.6-5.59-5.48-7.78c.54-1.07,1.88-1.69,3.71-1.7Zm-39.44.19a7.37,7.37,0,0,1,7.36,6.94,4.18,4.18,0,0,1-.36,8.34h0a4.16,4.16,0,0,1-3.26-1.56,7.37,7.37,0,1,1-3.74-13.72Z"/><path id="path2984" class="cls-3" d="M443.25,89.83c-11.1,0-22.06,5.47-29.71,14.6s-12,21.76-12,34.45,4.35,25.33,12,34.45,18.61,14.6,29.71,14.6a33.94,33.94,0,0,0,3.78-.22c1.18.09,2.36.15,3.55.15a49,49,0,0,0,0-98c-1.19,0-2.37.06-3.55.15a33.94,33.94,0,0,0-3.78-.22Z"/><path id="circle2926" class="cls-2" d="M443.25,93.42c-21.06,0-38.14,20.35-38.14,45.46h0c0,25.11,17.08,45.46,38.14,45.46h0c14.48,0,27.69-9.81,34.12-25.27-2,.5-4.94,0-7.65-1.4-4.33-2.19-6.89-5.83-5.73-8.12.57-1.12,2-1.76,3.88-1.77a13.73,13.73,0,0,1,6.05,1.59,12.94,12.94,0,0,1,5.27,4.57,53.27,53.27,0,0,0,2.2-15.06C481.39,113.77,464.32,93.42,443.25,93.42ZM438.42,110c2.18,0,3.78.77,4.45,2.06,1.44,2.73-1.58,7.15-6.74,9.86s-10.51,2.7-11.95,0h0c-1.44-2.73,1.59-7.14,6.75-9.86a16.41,16.41,0,0,1,7.49-2Zm28.27,3.68c2,0,3.69,1.18,3.69,2.64a1.77,1.77,0,0,1-.12.64c3.16.41,5.38,1.89,5.39,3.58,0,2-3.19,3.69-7.12,3.69h0c-3.93,0-7.12-1.65-7.11-3.69,0-1,.82-2,2.26-2.7a2.15,2.15,0,0,1-.68-1.52c0-1.46,1.65-2.64,3.69-2.64Zm-21,23.44c2.43,0,4.4,1,4.4,2.34h0c0,1.29-2,2.34-4.39,2.34h0c-2.42,0-4.39-1.05-4.39-2.34h0c0-1.29,2-2.34,4.39-2.34Zm-19,10.88a7.7,7.7,0,0,1,7.68,7.25,4.36,4.36,0,1,1-3.78,7.08,7.7,7.7,0,1,1-3.9-14.33Zm52.2,7c-.45,1.4-.95,2.78-1.51,4.12C477.94,157.72,478.44,156.34,478.89,154.94Z"/><circle id="circle2959" class="cls-3" cx="282.53" cy="65.69" r="46.23"/><path id="circle2961" class="cls-2" d="M282.53,22.78A42.92,42.92,0,1,0,297.16,106a42.84,42.84,0,0,1,3.91-78.94A43,43,0,0,0,282.53,22.78ZM271.05,36.2c2.06,0,3.57.73,4.21,1.94,1.35,2.58-1.5,6.74-6.37,9.3s-9.92,2.55-11.27,0h0c-1.36-2.58,1.49-6.74,6.36-9.3a15.23,15.23,0,0,1,7.07-1.91ZM260,72.06a7.28,7.28,0,0,1,7.26,6.84,4.12,4.12,0,0,1-.36,8.23h0a4.1,4.1,0,0,1-3.21-1.55,7.37,7.37,0,0,1-3.69,1,7.27,7.27,0,0,1,0-14.54Z"/><circle id="circle2996" class="cls-3" cx="119.9" cy="142.98" r="47.95"/><path id="path2998" class="cls-2" d="M119.9,98.46A44.51,44.51,0,0,0,75.39,143h0a44.51,44.51,0,0,0,44.51,44.51h0a45.31,45.31,0,0,0,5.33-.37,44.51,44.51,0,0,1-28.85-24c.21.49.44,1,.67,1.46l-.53,0a7.53,7.53,0,0,1-4-13.94q.14.84.3,1.68a45.14,45.14,0,0,1-.83-8.28,44.54,44.54,0,0,1,4.1-18.48A3.53,3.53,0,0,1,94.06,124c-1.41-2.67,1.55-7,6.6-9.65h0a17.8,17.8,0,0,1,4.43-1.64A44.46,44.46,0,0,1,131.23,100a44.26,44.26,0,0,0-11.33-1.53Zm-26.35,57c.13.5.26,1,.4,1.49C93.81,156.41,93.68,155.92,93.55,155.42Zm1.23,3.92c.23.65.47,1.29.73,1.93C95.25,160.63,95,160,94.78,159.34Z"/><g id="g3112"><circle id="circle3056" class="cls-1" cx="74.4" cy="287.81" r="47.95"/><circle id="circle3058" class="cls-4" cx="74.4" cy="287.81" r="43.94"/></g><path id="circle3080" class="cls-1" d="M296.87,455.07a46.22,46.22,0,0,0-46.23,46.22h0a46.23,46.23,0,1,0,46.23-46.22Z"/><path id="path3082" class="cls-2" d="M296.87,458.38a43,43,0,0,0-18.55,4.27,42.84,42.84,0,0,1,3.91,78.94,42.9,42.9,0,1,0,14.64-83.21Zm11.47,13.42a15.17,15.17,0,0,1,7.07,1.91c4.87,2.56,7.72,6.72,6.37,9.3h0c-1.36,2.58-6.41,2.6-11.28,0s-7.72-6.73-6.36-9.31c.63-1.21,2.14-1.91,4.2-1.94Zm11.07,35.87a7.27,7.27,0,0,1,7.27,7.26h0a7.24,7.24,0,0,1-10.95,6.25,4.12,4.12,0,0,1-7.34-2.57h0a4.14,4.14,0,0,1,3.77-4.11A7.26,7.26,0,0,1,319.41,507.67Z"/><path id="circle3098" class="cls-1" d="M130.31,386a43.78,43.78,0,0,0-43.78,43.78h0A43.78,43.78,0,1,0,130.31,386Z"/><path id="path3100" class="cls-2" d="M130.31,389.11A40.57,40.57,0,0,0,120,390.5a40.58,40.58,0,0,1,23.86,11.62,16.68,16.68,0,0,1,4,1.5c4.61,2.42,7.31,6.37,6,8.81a3.27,3.27,0,0,1-1.88,1.49,39.31,39.31,0,0,1,3,24.43q.15-.77.27-1.53a6.87,6.87,0,0,1-3.61,12.72,3.91,3.91,0,0,1-.49,0c.22-.44.42-.9.62-1.35A40.62,40.62,0,0,1,125.45,470a41.47,41.47,0,0,0,4.86.34,40.64,40.64,0,0,0,0-81.27Zm24.05,52c-.11.44-.23.89-.36,1.33C154.13,442,154.25,441.56,154.36,441.12Zm-1.13,3.58c-.2.59-.42,1.16-.66,1.74C152.81,445.86,153,445.29,153.23,444.7Z"/><path id="path3425" class="cls-1" d="M445.68,366.84c-11.1,0-22.06,5.47-29.71,14.6s-12,21.76-12,34.45,4.35,25.32,12,34.45,18.61,14.6,29.71,14.6a33.94,33.94,0,0,0,3.78-.22c1.18.09,2.36.15,3.55.15a49,49,0,1,0,0-98c-1.19,0-2.37.06-3.55.15a33.94,33.94,0,0,0-3.78-.22Z"/><path id="path3427" class="cls-2" d="M445.68,370.43c-21.06,0-38.14,20.35-38.14,45.46s17.08,45.46,38.14,45.46c14.48,0,27.69-9.81,34.12-25.27-2,.5-4.94,0-7.65-1.4-4.33-2.2-6.89-5.83-5.73-8.12h0c.57-1.12,2-1.76,3.88-1.77a13.76,13.76,0,0,1,6.05,1.59,12.94,12.94,0,0,1,5.27,4.57,53.27,53.27,0,0,0,2.2-15.06c0-25.11-17.07-45.46-38.14-45.46ZM440.85,387c2.18,0,3.78.77,4.45,2.06,1.44,2.73-1.58,7.15-6.74,9.86s-10.51,2.69-11.95,0h0c-1.43-2.73,1.59-7.15,6.75-9.86a16.29,16.29,0,0,1,7.49-2Zm28.27,3.68c2,0,3.69,1.18,3.69,2.64a1.81,1.81,0,0,1-.12.64c3.17.41,5.39,1.88,5.39,3.57,0,2-3.19,3.7-7.12,3.7h0c-3.93,0-7.12-1.66-7.12-3.69h0c0-1,.83-2,2.27-2.69a2.19,2.19,0,0,1-.68-1.52c0-1.46,1.65-2.64,3.69-2.64Zm-21,23.43c2.43,0,4.4,1.05,4.4,2.35h0c0,1.29-2,2.34-4.4,2.34s-4.39-1-4.39-2.34,2-2.35,4.39-2.35Zm-19,10.89a7.7,7.7,0,0,1,7.68,7.25,4.36,4.36,0,0,1-.37,8.71h0A4.35,4.35,0,0,1,433,439.3a7.67,7.67,0,0,1-11.6-6.62h0a7.7,7.7,0,0,1,7.7-7.7Zm52.2,6.94c-.44,1.41-.95,2.79-1.51,4.14C480.37,434.71,480.88,433.33,481.32,431.92Z"/></g></svg>