<?xml version="1.0" encoding="utf-8"?>
<!-- Generator: Adobe Illustrator 24.0.2, SVG Export Plug-In . SVG Version: 6.00 Build 0)  -->
<svg version="1.1" id="Layer_1" xmlns="http://www.w3.org/2000/svg" xmlns:xlink="http://www.w3.org/1999/xlink" x="0px" y="0px"
	 viewBox="0 0 512 512" style="enable-background:new 0 0 512 512;" xml:space="preserve">
<g>
	<g>
		<g>
			<path stroke-width='1' id="island" d="M233.5,314.1c-3.9,0-7.8,1.4-11.7,4.1c-0.5,0.3-0.9,0.6-1.3,1.1c-1.9,2.1-18.3,20.4-12.8,36.7
				c3.3,9.9,11.6,16.6,20.7,16.6l0,0c4.1,0,14.1-1.5,20.3-16.1c5-11.9,4.6-25.7-1.2-34.3C244.2,316.9,239.2,314.1,233.5,314.1z
				 M235.3,350.7c-1.9,4.5-4.5,7.2-6.8,7.2c-2.3,0-5.4-2.3-6.9-6.7c-2.1-6.1,5-16.7,9.1-21.5c1.5-0.9,2.5-1.1,2.9-1.1
				c0.3,0,0.9,0,1.9,1.4C238,333.9,238.8,342.5,235.3,350.7z"/>
			<path id="planet" d="M390.8,251.3c0-1-0.1-2-0.2-3.1c0-0.2,0-0.5-0.1-0.8c-0.1-1.2-0.2-2.3-0.2-3.4c0-0.1,0-0.2,0-0.4
				c-1-10.8-3.2-21.2-6.5-31c-0.2-0.7-0.5-1.5-0.8-2.2c-0.1-0.3-0.2-0.6-0.3-0.9c-1.9-5.4-4.2-10.6-6.9-15.6
				c-9.6-18.4-23.5-34.6-40.3-46.9c-0.2-0.2-0.5-0.3-0.7-0.4c-22.2-16.1-49.5-25.6-78.9-25.6c-46.8,0-88,23.9-112.3,60.2
				c-0.2,0.2-0.3,0.4-0.5,0.6c-6.9,10.4-12.2,21.6-15.8,33.3c-0.1,0.3-0.2,0.5-0.2,0.9c-0.2,0.9-0.5,1.6-0.8,2.5
				c-0.2,0.5-0.3,1.1-0.5,1.6c-0.3,1-0.5,2-0.8,3c-0.2,0.9-0.5,1.8-0.6,2.6c-0.2,0.6-0.2,1.2-0.4,1.8c-0.2,0.9-0.4,1.9-0.5,2.7
				c-0.1,0.5-0.2,0.9-0.2,1.4c-0.2,1.3-0.5,2.6-0.7,4.1c-0.1,0.4-0.1,0.8-0.2,1.2c-0.2,1.1-0.3,2.2-0.4,3.4
				c-0.1,0.4-0.1,0.8-0.2,1.2c-0.2,1.4-0.3,2.9-0.4,4.3c0,0.2,0,0.5-0.1,0.8c-0.1,1.2-0.2,2.4-0.2,3.7c0,0.4,0,0.8-0.1,1.2
				c-0.1,1.5-0.1,3-0.1,4.4c0,1.2,0,2.6,0.1,3.8c0,0.2,0,0.5,0,0.8c0,1.1,0.1,2.1,0.2,3.2c0,0.2,0,0.4,0,0.5
				c1.6,27.1,11.4,52.1,26.8,72.5c0.4,0.5,0.9,1.1,1.3,1.7c0.2,0.3,0.5,0.5,0.6,0.9c7.6,9.7,16.5,18.4,26.7,25.7
				c0.2,0.2,0.4,0.2,0.6,0.4c22.1,15.9,49.2,25.3,78.5,25.3c28.9,0,55.6-9.1,77.6-24.6c0.2-0.2,0.5-0.2,0.6-0.4
				c8.6-6.2,16.5-13.3,23.5-21.3c0.2-0.2,0.4-0.5,0.5-0.7c18.4-21.4,30.2-48.6,32.3-78.5v-0.1c0-0.2,0-0.2,0-0.4
				c0.1-1.3,0.2-2.6,0.2-3.9c0-0.2,0-0.5,0-0.7c0.1-1.4,0.1-2.9,0.1-4.3c0-1.2,0-2.6-0.1-3.8C390.8,251.9,390.8,251.6,390.8,251.3z
				 M159.8,331.5C159.8,331.5,159.8,331.4,159.8,331.5c-0.4-0.5-0.8-1-1.1-1.5c-0.4-0.5-0.7-0.9-1.1-1.4c-0.2-0.2-0.3-0.4-0.5-0.6
				c-13.7-18.9-21.9-41.4-23.3-65c0-0.1,0-0.2,0-0.2c-0.1-0.9-0.1-1.9-0.2-2.9c0-0.2,0-0.4,0-0.5c0-1.1-0.1-2.3-0.1-3.4
				c0-1.2,0-2.6,0.1-3.8c0-0.4,0-0.7,0.1-1.1c0.1-0.9,0.1-1.9,0.2-2.9c0-0.3,0.1-0.7,0.1-1c0.1-1.2,0.2-2.5,0.3-3.7
				c0-0.2,0.1-0.5,0.1-0.7c0.1-1,0.2-2,0.4-3c0.1-0.5,0.2-0.9,0.2-1.3c0.2-0.9,0.2-1.7,0.4-2.6c0.1-0.4,0.2-0.9,0.2-1.2
				c0.2-1.1,0.4-2.3,0.6-3.4c0.2-0.5,0.2-1.2,0.4-1.7c0.2-0.6,0.2-1.2,0.4-1.8c0.2-0.7,0.3-1.3,0.5-2c0.1-0.4,0.2-0.8,0.3-1.2
				c0.4-1.6,0.9-3.2,1.4-4.8c0-0.1,0-0.1,0.1-0.2c0.3-0.9,0.6-1.9,0.9-2.8c0-0.1,0-0.1,0.1-0.1c3-8.8,7-17.2,11.8-25
				c29.3,0.2,55,2.4,60.9,5.3c1.4,5,1.3,12.8-0.8,16.7c-0.4,0.6-0.8,1.1-1,1.2c-9,1.9-36.1,16-39.1,17.5c-0.2,0.1-0.2,0.2-0.4,0.2
				c-0.8,0.5-7.3,4.7-8.6,13.2c-1,7,2,14.4,9,21.9c9.3,10,22.1,10.1,31.5,10.1c3.2,0,9.2,0.1,10.1,1.1c0,0,0.5,0.8,0.2,3.3
				c-0.8,6.9-7.9,14.6-15.4,22.8c-11.7,12.6-24.9,26.9-20.3,45.4C171.5,344.7,165.3,338.4,159.8,331.5z M368.5,303.8
				c1.8-13.6,1.5-27.1-4.5-34.9c-7.6-9.9-11.1-19.8-10-23.5c0.2-0.5,0.3-0.9,1.2-1.3c2.9,0.8,9.8,8.8,14,13.7
				c2.7,3.2,5.5,6.5,8.4,9.4C376.6,280.1,373.4,292.4,368.5,303.8z M351.4,232c-4.8,1.6-8.1,5.1-9.5,9.7
				c-3.9,13.2,9.4,31.3,12.1,34.8c4.8,6.3,4.1,29-6.5,60.4c-5.1,5.7-10.6,10.9-16.6,15.6c-6.9-7-15.7-20.8-26.1-41.1
				c-1.6-3.1-5.4-4.4-8.5-2.7c-3.1,1.6-4.3,5.4-2.7,8.5c10.4,20.5,19.2,34.4,26.9,42.7c-18.7,11.7-40.8,18.4-64.4,18.4
				c-24.3,0-47-7.2-66.1-19.5c1.4-3.3,1.6-7.2,0.5-11.5c-3-12,6.8-22.6,17.2-33.8c8.6-9.3,17.5-18.9,18.7-30c0.6-5.5-0.5-9.9-3.4-13
				c-4.7-5.2-11.8-5.2-19.5-5.2c-8.3-0.1-16.8-0.1-22.3-6.1c-4.1-4.4-6.2-8.5-5.8-11.5c0.3-2.4,2.1-3.9,2.6-4.3
				c11-5.7,30.2-15,35.6-16.2c2.7-0.6,6.6-2.3,9.4-7.3c4.4-7.8,4.1-20.4,1.3-28.2c-2-5.7-9.1-9.4-39.5-11.4
				c-8.6-0.5-17.3-0.9-24.1-1c22.4-27.7,56.7-45.6,95.1-45.6c24.5,0,47.5,7.2,66.6,19.8c-2.5,2.6-5.5,4.8-7.9,4.8
				c-12.9,0-27,1.2-34.1,9.7c-2.3,2.8-4.8,7.6-3.6,14.7c1.7,9.7,7.3,15.7,11.8,20.6c5.1,5.5,6.9,7.8,5.8,11.9
				c-0.9,2.3-9.9,5.8-15.3,7.9c-12.7,5.1-27,10.8-31.8,23.3c-2.6,6.9-1.7,14.8,2.6,23.4c11.1,22,20,25.6,28.8,27.7
				c3.3,0.8,4.4,1.1,5.8,3c2.1,2.8,6.1,3.4,8.8,1.2c2.8-2.1,3.4-6.1,1.2-8.8c-4.3-5.7-9.1-6.9-12.9-7.7c-5.2-1.2-11.1-2.6-20.5-21.2
				c-2.7-5.4-3.4-9.7-2.1-13.2c2.7-7.3,14.4-12,24.6-16.1c11.1-4.4,20.7-8.3,22.8-16.6c2.8-11.1-3.7-18-8.8-23.5
				c-3.9-4.2-7.6-8.2-8.7-14.2c-0.5-2.6,0.2-3.7,0.8-4.4c2.8-3.4,11.1-5.1,24.5-5.1c7.7,0,14.1-5.5,18.2-10c6.9,5.6,13.2,12,18.9,19
				c0.2,0.3,0.5,0.7,0.8,1c0.2,0.3,0.5,0.6,0.7,0.9c0.5,0.7,1,1.3,1.5,2c0,0,0,0,0,0.1c13.6,18.6,21.7,40.9,23.3,64.2
				c0,0.2,0,0.2,0,0.4C368.7,237.9,360.6,228.8,351.4,232z"/>
			<path id="orbit" d="M428.5,102.9c-0.1-0.1-0.2-0.2-0.2-0.2c3.2-5.2,5-11.4,5-17.8c0-18.9-15.4-34.3-34.3-34.3
				c-8.7,0-16.7,3.2-22.7,8.6C340.1,37.1,298.5,25.4,256,25.4c-61.6,0-119.5,24-163.1,67.6C49.3,136.5,25.4,194.4,25.4,256
				s24,119.5,67.6,163.1c43.6,43.6,101.4,67.6,163.1,67.6s119.5-24,163.1-67.6c43.6-43.6,67.6-101.4,67.6-163.1
				C486.6,199.5,466,145.1,428.5,102.9z M399,65.1c10.9,0,19.7,8.8,19.7,19.7s-8.8,19.7-19.7,19.7c-10.9,0-19.7-8.8-19.7-19.7
				S388.1,65.1,399,65.1z M256,472c-119.1,0-216-96.9-216-216S136.9,40,256,40c39.5,0,78,10.7,111.6,31.1c-1.9,4.2-3,8.9-3,13.9
				c0,18.9,15.4,34.3,34.3,34.3c7.1,0,13.7-2.2,19.2-5.9c34.8,39.5,53.9,90.1,53.9,142.8C472,375.1,375.1,472,256,472z"/>
		</g>
	</g>
</g>
</svg>
