<?xml version="1.0" encoding="iso-8859-1"?>
<!-- Generator: Adobe Illustrator 19.0.0, SVG Export Plug-In . SVG Version: 6.00 Build 0)  -->
<svg version="1.1" id="object_planeta" xmlns="http://www.w3.org/2000/svg" xmlns:xlink="http://www.w3.org/1999/xlink" x="0px" y="0px"
	 viewBox="0 0 512.001 512.001" style="enable-background:new 0 0 512.001 512.001;" xml:space="preserve">
<g>
	<path style="fill:#77AAD4;" d="M72.025,444.002c33.673,43.617,91.325,57.206,128,55.999
		c66.239-2.178,108.689-23.502,136.001-55.999H72.025z"/>
	<path style="fill:#77AAD4;" d="M80.025,156.002c16.026-23.352,66.981-40,120-40s102.84,17.885,119.329,40H80.025z"/>
</g>
<g>
	<path style="fill:#FAC15C;" d="M352.001,188.001H48.026c0,0,17.053-18.7,32-32c11.259-10.019,23.975-16,23.975-16h192
		c0,0,17.671,9.287,32.026,24C338.322,174.555,352.001,188.001,352.001,188.001z"/>
	<path style="fill:#FAC15C;" d="M368,412.001H34.769c0,0,15.257,18,21.256,24c5.999,6,31.975,24,31.975,24h231.354
		c0,0,17.671-18,24.672-24C351.025,430.002,368,412.001,368,412.001z"/>
</g>
<path style="fill:#F9B233;" d="M392,345.621L9.084,347.44c0,0-1.083-14.658-1.083-47.439c0-28.988,8.025-40.001,8.025-40.001h368
	c0,0,8.284,18.836,8,48.001C391.897,327.429,392,345.621,392,345.621z"/>
<g>
	<path style="fill:#1D71B8;" d="M384,260.002H16c0,0,0.098-21.704,16.026-48.001c10.655-17.59,23.975-32,23.975-32h288
		c0,0,13.913,9.314,24.026,32C385.16,250.44,384,260.002,384,260.002z"/>
	<path style="fill:#1D71B8;" d="M8,340.001h384c0,0,1.544,16.666-7.975,40.001c-9.785,23.986-24.025,40-24.025,40H40
		c0,0-19.974-30-23.975-40C12.025,370.001,8,340.001,8,340.001z"/>
</g>
<circle style="fill:#77AAD4;" cx="448.004" cy="67.996" r="56"/>
<path style="fill:#1D71B8;" d="M448.001,124.002c-1.133,1.216,54.604-10.806,55.999-56c0.954-30.913-25.072-55.999-55.999-55.999
	C448.001,12.002,493.968,74.665,448.001,124.002z"/>
<g>
	<rect x="431.998" y="52.002" style="fill:#1D1D1B;" width="16" height="16"/>
	<rect x="416.002" y="76.001" style="fill:#1D1D1B;" width="16" height="16"/>
	<path style="fill:#1D1D1B;" d="M448.001,4.001c-35.289,0-64,28.71-64,64s28.711,64,64,64s64-28.711,64-64
		S483.29,4.001,448.001,4.001z M444.407,115.853C419.613,114.007,400,93.259,400,68.001c0-5.609,0.976-10.992,2.752-16H424V36.001
		h-11.739c8.088-9.023,19.533-14.967,32.351-15.866c7.179,8.325,27.831,36.523,14.069,71.867h-18.682v16h10.233
		C448.495,110.595,446.565,113.212,444.407,115.853z M466.465,112.303c16.429-27.341,14.358-52.148,8.855-69.306
		c-2.365-7.376-5.503-13.844-8.656-19.218c17.222,7.295,29.335,24.371,29.335,44.222C496,87.928,483.792,105.053,466.465,112.303z"
		/>
</g>
<g>
	<rect x="280.002" y="252.004" style="fill:#FFFFFF;" width="47.997" height="16"/>
	<rect x="95.995" y="332.003" style="fill:#FFFFFF;" width="47.997" height="16"/>
</g>
<rect x="64.004" y="332.003" style="fill:#1D1D1B;" width="16" height="16"/>
<g>
	<rect x="200.003" y="412.002" style="fill:#FFFFFF;" width="71.996" height="16"/>
	<rect x="112.001" y="211.999" style="fill:#FFFFFF;" width="56" height="16"/>
	<rect x="159.998" y="172.005" style="fill:#FFFFFF;" width="32" height="16"/>
</g>
<g>
	<path style="fill:#1D1D1B;" d="M360,427.869c25.105-33.426,40-74.94,40-119.867c0-110.28-89.72-200-200-200
		c-110.28,0-200,89.72-200,200c0,65.293,31.454,123.374,80,159.898V468h0.132c33.426,25.105,74.94,40,119.867,40
		c65.293,0,123.373-31.454,159.898-80H360V427.869z M200,492.001c-32.99,0-63.974-8.734-90.776-24H184v-16H85.595
		c-19.203-15.288-35.295-34.324-47.149-55.999H184v-16H30.678C21.234,357.876,16,333.54,16,308.003c0-13.734,1.525-27.117,4.391-40
		h243.608v-16H24.724c7.62-23.793,19.951-45.498,35.905-64H128v-16H76.194c32.71-29.804,76.173-48,123.806-48
		c18.673,0,36.7,2.804,53.695,8h-37.698v16h74.78c11.897,6.777,22.972,14.837,33.029,24h-83.806v16h99.37
		c27.798,32.24,44.629,74.191,44.629,120c0,8.133-0.537,16.143-1.564,24H160v16h219.609c-5.184,23.294-14.795,44.937-27.904,64
		h-55.703v16h43.371C305.603,467.167,255.648,492.001,200,492.001z"/>
	<rect x="343.995" y="252.004" style="fill:#1D1D1B;" width="16" height="16"/>
</g>

</svg>
